<?xml version="1.0" encoding="utf-8"?>
<!-- Generator: Adobe Illustrator 21.0.0, SVG Export Plug-In . SVG Version: 6.00 Build 0)  -->
<svg version="1.1" id="Layer_1" xmlns="http://www.w3.org/2000/svg" xmlns:xlink="http://www.w3.org/1999/xlink" x="0px" y="0px"
	 viewBox="0 0 500 500" style="enable-background:new 0 0 500 500;" xml:space="preserve">
<style type="text/css">
	.st0{fill:#2EC3E8;}
</style>
<g id="Layer_1_1_">
</g>
<g id="text">
</g>
<g id="Layer_3">
	<g>
		<path class="st0" d="M246.2,177.4c17.9-2,36.8-0.4,54.9,4.9c18.1,5.3,35.5,14.5,50.7,26.9s28.3,28.1,37.9,46.1
			c9.7,18,15.8,38.4,17.8,59.5c2,21-0.2,43-6.7,64c-6.6,21-17.4,41.1-32,58.5s-32.9,32.2-53.9,43.1C294,491.3,270.4,498,246.3,500
			V373.8c7.9,2,16.3,2.5,24.8,1.1c8.6-1.4,17.3-4.7,25.3-9.9c8-5.2,15.2-12.2,20.9-20.7c5.7-8.5,9.8-18.5,11.8-29.4
			c2-11,1.8-22.5-0.8-34c-2.6-11.5-7.7-22.9-15.1-33.1c-7.4-10.2-17.1-19.2-28.5-26.1c-11.4-6.9-24.6-11.6-38.6-13.6v-30.7H246.2z"
			/>
		<g>
			<path class="st0" d="M232,223.3c-17.2,0-31.1-14-31.1-31.1c0-17.2,14-31.1,31.1-31.1c17.2,0,31.1,14,31.1,31.1
				C263.1,209.4,249.1,223.3,232,223.3z M232,181c-6.1,0-11.1,5-11.1,11.1s5,11.1,11.1,11.1s11.1-5,11.1-11.1S238.1,181,232,181z"/>
		</g>
		<g>
			<path class="st0" d="M260.2,318.1c-17.2,0-31.1-14-31.1-31.1c0-17.2,14-31.1,31.1-31.1c17.2,0,31.1,14,31.1,31.1
				C291.3,304.2,277.3,318.1,260.2,318.1z M260.2,275.8c-6.1,0-11.1,5-11.1,11.1s5,11.1,11.1,11.1s11.1-5,11.1-11.1
				S266.3,275.8,260.2,275.8z"/>
		</g>
		<path class="st0" d="M245.8,302.6c-18,1.1-36.5-1.3-54-7.4c-17.5-6-34-15.7-48.1-28.2c-14.1-12.6-26-28.1-34.4-45.6
			c-8.5-17.5-13.5-36.9-14.6-56.6s1.7-40,8.4-59.1c6.7-19.1,17.3-37.1,31.1-52.5C148,37.9,165,25.1,184.1,16s40.3-14.5,61.7-15.6
			v84.9c-10.5-1.1-21.3-0.2-31.8,2.9c-10.4,3.1-20.5,8.4-29.3,15.6s-16.3,16.3-21.8,26.7s-9,22.1-10.2,34.3
			c-1.1,12.3,0.2,24.8,4,36.9s10.1,23.6,18.5,33.7c8.5,10,19.1,18.6,31.1,24.7c12,6.2,25.5,10.1,39.5,11.2V302.6z"/>
	</g>
</g>
</svg>
